<?xml version="1.0" encoding="utf-8"?>
<!-- Generator: Adobe Illustrator 22.0.1, SVG Export Plug-In . SVG Version: 6.00 Build 0)  -->
<svg version="1.1" id="Laag_1" xmlns="http://www.w3.org/2000/svg" xmlns:xlink="http://www.w3.org/1999/xlink" x="0px" y="0px"
	 viewBox="0 0 24 24" style="enable-background:new 0 0 24 24;" xml:space="preserve">
<g>
	<path d="M13.7,5.3c-1.1,0-2,0.3-2.8,0.8c-0.4,0.3-0.8,0.8-1.2,1.3C9.4,8,9.1,8.5,9.1,9.1h6.7l-0.3,1.3H8.9c0,0.1,0,0.3,0,0.4
		c0,0.5,0,0.8,0,0.9h6.3L14.9,13H9.1c0.3,1.5,0.9,2.5,2,3.2c0.7,0.4,1.6,0.7,2.4,0.7c1.2,0,2.2-0.3,2.9-1v2
		c-0.8,0.4-1.7,0.6-2.7,0.6c-2.9,0-4.9-1.2-6-3.7c-0.2-0.5-0.4-1.1-0.5-1.8H5.7L6,11.7h1c0-0.3,0-0.6,0-0.9c0-0.1,0-0.3,0-0.4H5.7
		L6,9.1h1.1c0.4-2.1,1.5-3.6,3.2-4.6c1-0.6,2.2-0.9,3.5-0.9c1.2,0,2.2,0.3,3.1,0.8l-0.4,1.8C15.6,5.6,14.7,5.3,13.7,5.3z"/>
</g>
</svg>
