<?xml version="1.0" encoding="utf-8"?>
<!-- Generator: Adobe Illustrator 22.0.1, SVG Export Plug-In . SVG Version: 6.00 Build 0)  -->
<svg version="1.1" id="Laag_1" xmlns="http://www.w3.org/2000/svg" xmlns:xlink="http://www.w3.org/1999/xlink" x="0px" y="0px"
	 viewBox="0 0 24 24" style="enable-background:new 0 0 24 24;" xml:space="preserve">
<style type="text/css">
	.st0{fill:none;}
	.st1{enable-background:new    ;}
</style>
<rect x="2.9" y="3.9" class="st0" width="18.2" height="16.3"/>
<g class="st1">
	<path d="M4.1,7.3c0-1,0.3-1.9,0.8-2.6s1.3-1.1,2.2-1.1c0.9,0,1.6,0.3,2.2,1s0.9,1.6,0.9,2.8c0,1.2-0.3,2.1-0.9,2.8s-1.3,1-2.2,1
		c-0.9,0-1.6-0.3-2.2-1S4.1,8.6,4.1,7.3z M7.1,4.8C6.7,4.8,6.3,5,6,5.4S5.6,6.5,5.6,7.5c0,0.9,0.1,1.6,0.4,1.9S6.7,10,7.1,10
		c0.4,0,0.8-0.2,1.1-0.6s0.4-1.1,0.4-2.1c0-0.9-0.1-1.6-0.4-1.9S7.6,4.8,7.1,4.8z M7.1,18.7L15,3.6h1.4L8.6,18.7H7.1z M13.3,14.8
		c0-1,0.3-1.9,0.8-2.6c0.5-0.7,1.3-1.1,2.2-1.1c0.9,0,1.6,0.3,2.2,1s0.9,1.6,0.9,2.8c0,1.2-0.3,2.1-0.9,2.8s-1.3,1-2.2,1
		c-0.9,0-1.6-0.3-2.2-1S13.3,16.1,13.3,14.8z M16.4,12.4c-0.4,0-0.8,0.2-1.1,0.6S14.9,14,14.9,15c0,0.9,0.1,1.6,0.4,1.9
		s0.7,0.6,1.1,0.6c0.4,0,0.8-0.2,1.1-0.6s0.4-1.1,0.4-2.1c0-0.9-0.1-1.6-0.4-1.9S16.8,12.4,16.4,12.4z"/>
</g>
</svg>
