<svg xmlns="http://www.w3.org/2000/svg" xmlns:xlink="http://www.w3.org/1999/xlink" display="none"><symbol viewBox="0 0 24 24" id="euro" xmlns="http://www.w3.org/2000/svg"><path d="M13.7,5.3c-1.1,0-2,0.3-2.8,0.8c-0.4,0.3-0.8,0.8-1.2,1.3C9.4,8,9.1,8.5,9.1,9.1h6.7l-0.3,1.3H8.9c0,0.1,0,0.3,0,0.4
		c0,0.5,0,0.8,0,0.9h6.3L14.9,13H9.1c0.3,1.5,0.9,2.5,2,3.2c0.7,0.4,1.6,0.7,2.4,0.7c1.2,0,2.2-0.3,2.9-1v2
		c-0.8,0.4-1.7,0.6-2.7,0.6c-2.9,0-4.9-1.2-6-3.7c-0.2-0.5-0.4-1.1-0.5-1.8H5.7L6,11.7h1c0-0.3,0-0.6,0-0.9c0-0.1,0-0.3,0-0.4H5.7
		L6,9.1h1.1c0.4-2.1,1.5-3.6,3.2-4.6c1-0.6,2.2-0.9,3.5-0.9c1.2,0,2.2,0.3,3.1,0.8l-0.4,1.8C15.6,5.6,14.7,5.3,13.7,5.3z"/></symbol><symbol viewBox="0 0 24 24" id="percent" xmlns="http://www.w3.org/2000/svg"><path d="M4.1,7.3c0-1,0.3-1.9,0.8-2.6s1.3-1.1,2.2-1.1c0.9,0,1.6,0.3,2.2,1s0.9,1.6,0.9,2.8c0,1.2-0.3,2.1-0.9,2.8s-1.3,1-2.2,1
		c-0.9,0-1.6-0.3-2.2-1S4.1,8.6,4.1,7.3z M7.1,4.8C6.7,4.8,6.3,5,6,5.4S5.6,6.5,5.6,7.5c0,0.9,0.1,1.6,0.4,1.9S6.7,10,7.1,10
		c0.4,0,0.8-0.2,1.1-0.6s0.4-1.1,0.4-2.1c0-0.9-0.1-1.6-0.4-1.9S7.6,4.8,7.1,4.8z M7.1,18.7L15,3.6h1.4L8.6,18.7H7.1z M13.3,14.8
		c0-1,0.3-1.9,0.8-2.6c0.5-0.7,1.3-1.1,2.2-1.1c0.9,0,1.6,0.3,2.2,1s0.9,1.6,0.9,2.8c0,1.2-0.3,2.1-0.9,2.8s-1.3,1-2.2,1
		c-0.9,0-1.6-0.3-2.2-1S13.3,16.1,13.3,14.8z M16.4,12.4c-0.4,0-0.8,0.2-1.1,0.6S14.9,14,14.9,15c0,0.9,0.1,1.6,0.4,1.9
		s0.7,0.6,1.1,0.6c0.4,0,0.8-0.2,1.1-0.6s0.4-1.1,0.4-2.1c0-0.9-0.1-1.6-0.4-1.9S16.8,12.4,16.4,12.4z"/></symbol></svg>